<?xml version="1.0" encoding="UTF-8"?>
<svg version="1.1" xmlns="http://www.w3.org/2000/svg" width="117" height="84">
<path d="M0 0 C38.61 0 77.22 0 117 0 C117 27.72 117 55.44 117 84 C78.39 84 39.78 84 0 84 C0 56.28 0 28.56 0 0 Z " fill="#FDFDFC" transform="translate(0,0)"/>
<path d="M0 0 C1.65719559 -0.00450165 1.65719559 -0.00450165 3.34786987 -0.00909424 C5.13851364 0.00942596 5.13851364 0.00942596 6.96533203 0.02832031 C8.19220734 0.03019348 9.41908264 0.03206665 10.68313599 0.03399658 C13.28064689 0.04072487 15.87814754 0.05465459 18.47558594 0.07519531 C22.45012848 0.10626539 26.424274 0.11615785 30.39892578 0.12207031 C32.92106603 0.13124384 35.44320224 0.14162072 37.96533203 0.15332031 C39.15504608 0.15757019 40.34476013 0.16182007 41.57052612 0.16619873 C43.23717819 0.18061005 43.23717819 0.18061005 44.9375 0.1953125 C46.39952347 0.2055545 46.39952347 0.2055545 47.89108276 0.21600342 C50.59814453 0.35644531 50.59814453 0.35644531 53.26443481 0.92901611 C55.74143728 1.57643999 55.74143728 1.57643999 58.59814453 0.35644531 C67.244626 -0.44634825 75.34074047 0.21565804 82.36376953 5.74707031 C84.83673363 8.32873613 85.59814453 9.96830039 85.59814453 13.54394531 C84.09336442 17.77613939 84.09336442 17.77613939 81.59814453 19.35644531 C75.34740491 20.79892369 69.7164416 20.06956849 63.59814453 18.35644531 C66.55971413 16.87566051 69.43320748 17.00330494 72.72314453 16.79394531 C74.00447266 16.71015625 75.28580078 16.62636719 76.60595703 16.54003906 C77.59337891 16.47945312 78.58080078 16.41886719 79.59814453 16.35644531 C79.45805792 10.50071167 79.45805792 10.50071167 76.22314453 5.91894531 C72.04993802 3.43489382 68.94331732 3.22058794 64.16064453 3.23144531 C63.02755859 3.22886719 61.89447266 3.22628906 60.72705078 3.22363281 C58.1459327 3.33319338 56.04870048 3.59779654 53.59814453 4.35644531 C53.76314453 5.38769531 53.92814453 6.41894531 54.09814453 7.48144531 C53.59814453 11.35644531 53.59814453 11.35644531 51.99267578 13.08691406 C48.43823933 15.78775227 44.89019117 18.01518074 40.59814453 19.35644531 C41.17822266 19.5871875 41.75830078 19.81792969 42.35595703 20.05566406 C49.78325224 23.15649853 55.4454857 26.4416597 58.91064453 34.03613281 C60.39509905 39.04616681 60.69970829 44.85059799 58.57470703 49.68457031 C58.09130859 50.51214844 58.09130859 50.51214844 57.59814453 51.35644531 C62.86400761 53.65182153 67.10137565 53.57576435 72.59814453 52.35644531 C75.90306773 50.97438652 78.07637991 49.87820993 80.59814453 47.35644531 C81.58814453 47.35644531 82.57814453 47.35644531 83.59814453 47.35644531 C82.22536362 50.73178806 81.02045083 52.01971882 77.72314453 53.54394531 C77.04509766 53.8675 76.36705078 54.19105469 75.66845703 54.52441406 C68.58346033 57.37178066 61.93881108 56.72059153 54.77392578 54.59863281 C52.53087526 54.16566867 52.53087526 54.16566867 50.376297 55.32711792 C47.07415156 56.55058884 44.49083698 56.59695274 40.97192383 56.58349609 C40.00522514 56.58393417 40.00522514 56.58393417 39.01899719 56.5843811 C36.90331232 56.58299536 34.78798611 56.56747038 32.67236328 56.55175781 C31.19977511 56.54802498 29.72718444 56.54517929 28.2545929 56.54318237 C24.38956781 56.53556714 20.5246944 56.51593694 16.659729 56.49377441 C12.71148734 56.4732704 8.76322103 56.46417093 4.81494141 56.45410156 C-2.92405983 56.43268891 -10.66293635 56.39857865 -18.40185547 56.35644531 C-18.43560992 54.76967923 -18.45958538 53.18270334 -18.47949219 51.59570312 C-18.4939035 50.71199036 -18.50831482 49.82827759 -18.52316284 48.91778564 C-18.34162269 45.08466238 -17.18146387 42.57399785 -15.52685547 39.10644531 C-13.55511131 34.89624765 -11.78810057 30.79781311 -10.40185547 26.35644531 C-13.04185547 26.35644531 -15.68185547 26.35644531 -18.40185547 26.35644531 C-18.40185547 24.70644531 -18.40185547 23.05644531 -18.40185547 21.35644531 C-15.43185547 21.35644531 -12.46185547 21.35644531 -9.40185547 21.35644531 C-9.36447266 20.091875 -9.32708984 18.82730469 -9.28857422 17.52441406 C-9.22291714 15.86422801 -9.15646971 14.20407309 -9.08935547 12.54394531 C-9.06679688 11.71056641 -9.04423828 10.8771875 -9.02099609 10.01855469 C-8.98554688 9.21611328 -8.95009766 8.41367187 -8.91357422 7.58691406 C-8.8742981 6.47932739 -8.8742981 6.47932739 -8.83422852 5.34936523 C-7.76742575 0.43219359 -4.53450652 -0.01698827 0 0 Z " fill="#968162" transform="translate(25.40185546875,11.6435546875)"/>
<path d="M0 0 C6.01015866 0.38159738 10.59611235 2.57930618 15.9375 5.25 C15.9375 19.44 15.9375 33.63 15.9375 48.25 C7.14250043 51.76799983 2.16364402 53.39565976 -6.875 53.375 C-8.58623047 53.37886719 -8.58623047 53.37886719 -10.33203125 53.3828125 C-13.0625 53.25 -13.0625 53.25 -14.0625 52.25 C-14.84206513 46.27333402 -12.97487241 42.39086009 -10.375 37.05078125 C-8.57359302 33.20670743 -7.32391447 29.29980434 -6.0625 25.25 C-0.7825 25.25 4.4975 25.25 9.9375 25.25 C9.9375 23.6 9.9375 21.95 9.9375 20.25 C4.9875 20.25 0.0375 20.25 -5.0625 20.25 C-4.92233833 17.10381791 -4.77565095 13.95818184 -4.625 10.8125 C-4.58568359 9.91466797 -4.54636719 9.01683594 -4.50585938 8.09179688 C-4.46396484 7.23779297 -4.42207031 6.38378906 -4.37890625 5.50390625 C-4.32391968 4.31776733 -4.32391968 4.31776733 -4.26782227 3.10766602 C-3.917826 -0.05894703 -3.26903433 0.26685995 0 0 Z " fill="#FBFBFB" transform="translate(27.0625,12.75)"/>
<path d="M0 0 C4.61022878 3.08066689 7.33410999 7.52576941 9.3125 12.625 C10.16385448 17.4655583 10.56293695 22.21115285 8.24609375 26.68359375 C6.51982758 28.83240866 4.78269901 30.3899005 2.3125 31.625 C0.58414535 31.72129223 -1.14787253 31.75575017 -2.87890625 31.7578125 C-3.90564453 31.75910156 -4.93238281 31.76039062 -5.99023438 31.76171875 C-7.06595703 31.75785156 -8.14167969 31.75398438 -9.25 31.75 C-10.32958984 31.75386719 -11.40917969 31.75773437 -12.52148438 31.76171875 C-14.0596582 31.75978516 -14.0596582 31.75978516 -15.62890625 31.7578125 C-16.57451416 31.75668457 -17.52012207 31.75555664 -18.49438477 31.75439453 C-20.6875 31.625 -20.6875 31.625 -21.6875 30.625 C-22.05317678 26.38400477 -22.05923019 22.12962615 -22.125 17.875 C-22.17076172 16.68132813 -22.21652344 15.48765625 -22.26367188 14.2578125 C-22.37421888 5.66398466 -22.37421888 5.66398466 -20.42626953 2.71679688 C-14.44199147 -2.42897888 -7.09150198 -2.64428887 0 0 Z " fill="#FDFDFD" transform="translate(69.6875,34.375)"/>
<path d="M0 0 C6.03230491 -0.02474909 12.06458015 -0.04288334 18.09692383 -0.05493164 C20.14836136 -0.0599553 22.19979532 -0.06677537 24.2512207 -0.07543945 C27.2026457 -0.08759112 30.15402327 -0.09324804 33.10546875 -0.09765625 C34.02023483 -0.10281754 34.93500092 -0.10797882 35.87748718 -0.11329651 C40.09539406 -0.11366673 43.86114063 0.13706614 48 1 C48.99 0.67 49.98 0.34 51 0 C59.64648147 -0.80279356 67.74259594 -0.14078727 74.765625 5.390625 C77.2385891 7.97229082 78 9.61185507 78 13.1875 C76.49521989 17.41969407 76.49521989 17.41969407 74 19 C67.74926038 20.44247837 62.11829707 19.71312318 56 18 C58.9615696 16.5192152 61.83506295 16.64685963 65.125 16.4375 C66.40632813 16.35371094 67.68765625 16.26992188 69.0078125 16.18359375 C69.99523437 16.12300781 70.98265625 16.06242187 72 16 C71.85991339 10.14426635 71.85991339 10.14426635 68.625 5.5625 C64.45179349 3.07844851 61.34517279 2.86414263 56.5625 2.875 C55.42941406 2.87242188 54.29632813 2.86984375 53.12890625 2.8671875 C50.54778817 2.97674807 48.45055595 3.24135123 46 4 C46.12375 5.051875 46.2475 6.10375 46.375 7.1875 C45.94244186 11.58517442 45.94244186 11.58517442 43.1875 14 C42.135625 14.66 41.08375 15.32 40 16 C39.01 15.67 38.02 15.34 37 15 C37.495 14.29875 37.99 13.5975 38.5 12.875 C40.20248776 9.61189846 40.32987945 7.6286739 40 4 C38.97285339 2.7494687 38.97285339 2.7494687 36.77514648 2.88647461 C35.81680908 2.89171143 34.85847168 2.89694824 33.87109375 2.90234375 C32.83662109 2.90556641 31.80214844 2.90878906 30.73632812 2.91210938 C29.64771484 2.92048828 28.55910156 2.92886719 27.4375 2.9375 C26.34501953 2.94201172 25.25253906 2.94652344 24.12695312 2.95117188 C21.41794568 2.9630016 18.7089662 2.98093769 16 3 C16 9.6 16 16.2 16 23 C17.32 22.67 18.64 22.34 20 22 C19.34878174 22.69907471 18.69756348 23.39814941 18.02661133 24.1184082 C15.66267812 27.47963018 15.51793449 29.05144739 15.57421875 33.10546875 C15.58259766 34.25337891 15.59097656 35.40128906 15.59960938 36.58398438 C15.62861328 37.77314453 15.65761719 38.96230469 15.6875 40.1875 C15.69716797 41.38826172 15.70683594 42.58902344 15.71679688 43.82617188 C15.51657953 49.59032742 15.51657953 49.59032742 17 55 C7.1 55 -2.8 55 -13 55 C-13 54.67 -13 54.34 -13 54 C-12.17757813 53.89042969 -11.35515625 53.78085938 -10.5078125 53.66796875 C-9.39148438 53.50941406 -8.27515625 53.35085937 -7.125 53.1875 C-6.03445312 53.03667969 -4.94390625 52.88585937 -3.8203125 52.73046875 C0.86642888 51.83433313 5.42959221 50.37112234 10 49 C10 34.81 10 20.62 10 6 C8.68 5.67 7.36 5.34 6 5 C3.98473831 4.03112419 1.98166034 3.0358679 0 2 C0 1.34 0 0.68 0 0 Z " fill="#937E5D" transform="translate(33,12)"/>
<path d="M0 0 C1.61358398 -0.01836914 1.61358398 -0.01836914 3.25976562 -0.03710938 C4.28650391 -0.03904297 5.31324219 -0.04097656 6.37109375 -0.04296875 C7.79119751 -0.04913208 7.79119751 -0.04913208 9.23999023 -0.05541992 C11.5625 0.1875 11.5625 0.1875 13.5625 2.1875 C14.0505027 5.84752021 13.94055142 7.61335648 11.890625 10.7265625 C9.3218887 13.44183745 7.41023646 14.43512485 3.9375 15.75 C2.88820313 16.15734375 1.83890625 16.5646875 0.7578125 16.984375 C-0.29664063 17.38140625 -1.35109375 17.7784375 -2.4375 18.1875 C-4.35560681 18.95474272 -6.2724182 19.72523756 -8.1875 20.5 C-9.60389459 21.06318475 -11.02051381 21.6258054 -12.4375 22.1875 C-12.46637814 18.70835059 -12.48425687 15.22923169 -12.5 11.75 C-12.50837891 10.75677734 -12.51675781 9.76355469 -12.52539062 8.74023438 C-12.52861328 7.79599609 -12.53183594 6.85175781 -12.53515625 5.87890625 C-12.54039307 5.00435791 -12.54562988 4.12980957 -12.55102539 3.22875977 C-12.25495465 -2.0947831 -3.99584813 0.00238558 0 0 Z " fill="#FDFDFD" transform="translate(60.4375,13.8125)"/>
<path d="M0 0 C-2 2 -2 2 -5 3 C-4.41992188 3.23074219 -3.83984375 3.46148438 -3.2421875 3.69921875 C4.18510771 6.80005322 9.84734117 10.08521439 13.3125 17.6796875 C14.79695452 22.6897215 15.10156375 28.49415268 12.9765625 33.328125 C12.49316406 34.15570313 12.49316406 34.15570313 12 35 C17.26586308 37.29537621 21.50323112 37.21931904 27 36 C30.3049232 34.61794121 32.47823538 33.52176462 35 31 C35.99 31 36.98 31 38 31 C36.62721909 34.37534275 35.4223063 35.6632735 32.125 37.1875 C31.44695312 37.51105469 30.76890625 37.83460937 30.0703125 38.16796875 C22.9853158 41.01533535 16.34066655 40.36414622 9.17578125 38.2421875 C6.93273073 37.80922336 6.93273073 37.80922336 4.77815247 38.97067261 C1.47600703 40.19414353 -1.10730755 40.24050743 -4.6262207 40.22705078 C-5.59291939 40.22748886 -5.59291939 40.22748886 -6.57914734 40.22793579 C-8.69483221 40.22655005 -10.81015842 40.21102507 -12.92578125 40.1953125 C-14.39836942 40.19157967 -15.87096009 40.18873397 -17.34355164 40.18673706 C-21.20857672 40.17912183 -25.07345013 40.15949163 -28.93841553 40.1373291 C-32.88665719 40.11682508 -36.8349235 40.10772562 -40.78320312 40.09765625 C-48.52220437 40.0762436 -56.26108088 40.04213333 -64 40 C-64 36.7 -64 33.4 -64 30 C-63.67 30 -63.34 30 -63 30 C-63 32.97 -63 35.94 -63 39 C-61.95078369 38.89171875 -61.95078369 38.89171875 -60.88037109 38.78125 C-52.77020361 38.01631526 -44.76566196 37.92192224 -36.625 38 C-27.22661038 38.03024421 -17.83205619 38.04563851 -8.4375 37.75 C-7.54691895 37.73582031 -6.65633789 37.72164062 -5.73876953 37.70703125 C-0.60226306 37.50579691 2.29550714 36.90255485 6 33 C8.13209748 28.73580504 7.58203485 23.61747649 7 19 C5.03634545 13.93798394 2.52635666 10.15324725 -1.8125 6.875 C-7.30513713 5.36721726 -12.52256983 5.46334538 -18 7 C-18 6.34 -18 5.68 -18 5 C-15.56686628 3.96748938 -13.12943108 2.94880479 -10.6875 1.9375 C-9.99720703 1.64294922 -9.30691406 1.34839844 -8.59570312 1.04492188 C-3.33984375 -1.11328125 -3.33984375 -1.11328125 0 0 Z " fill="#9F8F75" transform="translate(71,28)"/>
<path d="M0 0 C3.45248299 2.04124907 5.11169764 3.76747438 7.140625 7.265625 C7.140625 10.5132472 6.71952012 12.33296064 5.015625 15.078125 C0.1438541 18.1635799 -5.46173218 17.28404817 -10.859375 16.265625 C-12.19854761 15.95658517 -13.53590754 15.63619589 -14.859375 15.265625 C-11.8978054 13.7848402 -9.02431205 13.91248463 -5.734375 13.703125 C-4.45304687 13.61933594 -3.17171875 13.53554688 -1.8515625 13.44921875 C-0.37042969 13.35833984 -0.37042969 13.35833984 1.140625 13.265625 C1.00053839 7.40989135 1.00053839 7.40989135 -2.234375 2.828125 C-6.42643759 0.33284965 -9.55439644 0.12980298 -14.359375 0.140625 C-15.5040625 0.13804688 -16.64875 0.13546875 -17.828125 0.1328125 C-20.90617359 0.12878092 -20.90617359 0.12878092 -23.859375 1.265625 C-24.519375 0.605625 -25.179375 -0.054375 -25.859375 -0.734375 C-17.53656928 -4.43339976 -8.15536845 -3.7356849 0 0 Z " fill="#9C896C" transform="translate(103.859375,14.734375)"/>
<path d="M0 0 C-1.37278091 3.37534275 -2.5776937 4.6632735 -5.875 6.1875 C-6.55304688 6.51105469 -7.23109375 6.83460937 -7.9296875 7.16796875 C-12.7276177 9.09619353 -16.86259175 9.32618465 -22 9 C-23.74609375 7.484375 -23.74609375 7.484375 -25 6 C-24.38253906 6.03480469 -23.76507813 6.06960937 -23.12890625 6.10546875 C-16.98092303 6.30197963 -11.57283028 5.76932057 -6 3 C-5.48308594 2.47019531 -4.96617188 1.94039062 -4.43359375 1.39453125 C-3 0 -3 0 0 0 Z " fill="#9C896C" transform="translate(109,59)"/>
<path d="M0 0 C-2.35953094 2.35953094 -3.77895617 2.49141413 -7 3 C-7 3.66 -7 4.32 -7 5 C-10.63 5.66 -14.26 6.32 -18 7 C-18 6.34 -18 5.68 -18 5 C-15.56686628 3.96748938 -13.12943108 2.94880479 -10.6875 1.9375 C-9.65206055 1.49567383 -9.65206055 1.49567383 -8.59570312 1.04492188 C-3.33984375 -1.11328125 -3.33984375 -1.11328125 0 0 Z " fill="#A4947C" transform="translate(71,28)"/>
<path d="M0 0 C3.63 0.33 7.26 0.66 11 1 C11 1.66 11 2.32 11 3 C5.04296875 3.29296875 5.04296875 3.29296875 3 3 C2.01 2.01 1.02 1.02 0 0 Z " fill="#A3947B" transform="translate(84,65)"/>
<path d="M0 0 C1.32 0.33 2.64 0.66 4 1 C3.67 2.32 3.34 3.64 3 5 C2.01 5 1.02 5 0 5 C0 3.35 0 1.7 0 0 Z " fill="#E2E1DE" transform="translate(48,73)"/>
<path d="M0 0 C0.99 0 1.98 0 3 0 C1.95125002 2.62187494 1.35068687 3.79371361 -1.125 5.25 C-1.74375 5.4975 -2.3625 5.745 -3 6 C-1.125 1.125 -1.125 1.125 0 0 Z " fill="#A19177" transform="translate(106,59)"/>
</svg>
